<svg width="89" height="18" viewBox="0 0 89 18" fill="none" xmlns="http://www.w3.org/2000/svg">
<path d="M31.5003 15.432C32.3191 14.5913 32.9401 13.624 33.3646 12.534C33.7904 11.444 34.0026 10.2761 34 9.04619C34 7.81628 33.7759 6.64838 33.3292 5.55836C32.8811 4.46833 32.2405 3.49179 31.4073 2.65117C30.557 1.80792 29.5731 1.14677 28.4543 0.703373C27.3354 0.258652 26.1419 0 24.8777 0H18.318V12.3295H22.226V3.94575H24.8777C25.6336 3.94575 26.3293 4.12126 26.9621 4.37067C27.5949 4.62009 28.1412 5.0173 28.6049 5.46202C29.0687 5.90542 29.4264 6.4346 29.6832 7.05088C29.9386 7.66583 30.0644 8.32961 30.0644 9.04486C30.0644 9.7931 29.9373 10.4754 29.6832 11.1075C29.4277 11.7369 29.0727 12.2648 28.6167 12.7174C28.1634 13.1688 27.6145 13.4921 26.9739 13.7389C26.3319 13.9896 25.6336 14.0556 24.8777 14.0556H16.3646V0H12.2128V6.16407H3.90806V0H0V18H3.90806V10.1098H12.2115V18H24.8777C26.1747 18 27.4088 17.8311 28.5827 17.3481C29.1395 17.1132 29.6635 16.9047 30.1587 16.5774C30.6526 16.2501 31.0981 15.8701 31.5003 15.432Z" fill="#F7F9FD"/>
<g clip-path="url(#clip0_62_453)">
<path d="M42.0029 1.43363H43.3808V8.27123H42.0029V5.43851H39.3879V8.27123H38V1.43363H39.3879V4.14913H42.0029V1.43363ZM50.6125 7.38235C49.9018 8.06611 49.0368 8.40799 48.0176 8.40799C46.9985 8.40799 46.1335 8.06611 45.4228 7.38235C44.7188 6.69207 44.3668 5.84877 44.3668 4.85243C44.3668 3.85609 44.7188 3.01605 45.4228 2.33228C46.1335 1.64201 46.9985 1.29688 48.0176 1.29688C49.0368 1.29688 49.9018 1.64201 50.6125 2.33228C51.3232 3.01605 51.6785 3.85609 51.6785 4.85243C51.6785 5.84877 51.3232 6.69207 50.6125 7.38235ZM46.3984 6.46415C46.8342 6.88092 47.3739 7.0893 48.0176 7.0893C48.6613 7.0893 49.2011 6.88092 49.6369 6.46415C50.0727 6.04087 50.2906 5.50363 50.2906 4.85243C50.2906 4.20123 50.0727 3.66399 49.6369 3.24071C49.2011 2.81743 48.6613 2.60579 48.0176 2.60579C47.3739 2.60579 46.8342 2.81743 46.3984 3.24071C45.9626 3.66399 45.7446 4.20123 45.7446 4.85243C45.7446 5.50363 45.9626 6.04087 46.3984 6.46415ZM58.5779 7.38235C57.8672 8.06611 57.0022 8.40799 55.9831 8.40799C54.964 8.40799 54.099 8.06611 53.3883 7.38235C52.6842 6.69207 52.3322 5.84877 52.3322 4.85243C52.3322 3.85609 52.6842 3.01605 53.3883 2.33228C54.099 1.64201 54.964 1.29688 55.9831 1.29688C57.0022 1.29688 57.8672 1.64201 58.5779 2.33228C59.2887 3.01605 59.644 3.85609 59.644 4.85243C59.644 5.84877 59.2887 6.69207 58.5779 7.38235ZM54.3638 6.46415C54.7996 6.88092 55.3394 7.0893 55.9831 7.0893C56.6268 7.0893 57.1665 6.88092 57.6023 6.46415C58.0381 6.04087 58.2561 5.50363 58.2561 4.85243C58.2561 4.20123 58.0381 3.66399 57.6023 3.24071C57.1665 2.81743 56.6268 2.60579 55.9831 2.60579C55.3394 2.60579 54.7996 2.81743 54.3638 3.24071C53.928 3.66399 53.7101 4.20123 53.7101 4.85243C53.7101 5.50363 53.928 6.04087 54.3638 6.46415ZM67.5089 1.43363V8.27123H66.131V3.83656L64.1497 7.01116H63.9888L62.0075 3.84633V8.27123H60.6195V1.43363H62.0477L64.0692 4.66684L66.0807 1.43363H67.5089ZM73.3466 8.27123L72.9242 7.04046H70.1181L69.6957 8.27123H68.1971L70.6612 1.43363H72.3811L74.8552 8.27123H73.3466ZM70.5606 5.78039H72.4917L71.5262 2.98674L70.5606 5.78039ZM79.6121 1.43363H81V8.27123H79.944L76.9267 4.09053V8.27123H75.5388V1.43363H76.5948L79.6121 5.60457V1.43363Z" fill="#F7F9FD"/>
<path d="M40.3593 10.8805C41.1923 10.8805 41.8797 11.1727 42.4215 11.7571C42.9691 12.3357 43.2428 13.0462 43.2428 13.8885C43.2428 14.7307 42.9691 15.444 42.4215 16.0284C41.8797 16.6071 41.1923 16.8964 40.3593 16.8964H38V10.8805H40.3593ZM40.3593 16.3292C41.0292 16.3292 41.5768 16.0943 42.002 15.6245C42.4331 15.1547 42.6487 14.576 42.6487 13.8885C42.6487 13.2009 42.4331 12.6223 42.002 12.1524C41.5768 11.6826 41.0292 11.4477 40.3593 11.4477H38.6117V16.3292H40.3593ZM44.289 10.8805H44.9007V16.8964H44.289V10.8805ZM52.1486 14.0346V14.3439C52.1486 15.0888 51.8778 15.719 51.336 16.2347C50.7942 16.7446 50.069 16.9996 49.1602 16.9996C48.234 16.9996 47.468 16.6988 46.8621 16.0972C46.2563 15.4956 45.9533 14.7593 45.9533 13.8885C45.9533 13.0176 46.2563 12.2813 46.8621 11.6797C47.468 11.0781 48.234 10.7773 49.1602 10.7773C49.7253 10.7773 50.2437 10.912 50.7156 11.1813C51.1875 11.4505 51.5516 11.8087 51.8079 12.2556L51.2661 12.5649C51.0739 12.1982 50.7884 11.906 50.4098 11.6883C50.0311 11.4706 49.6146 11.3618 49.1602 11.3618C48.3971 11.3618 47.7738 11.6052 47.2903 12.0923C46.8068 12.5793 46.565 13.178 46.565 13.8885C46.565 14.5989 46.8068 15.1976 47.2903 15.6846C47.7738 16.1717 48.3971 16.4152 49.1602 16.4152C49.8476 16.4152 50.3981 16.2461 50.8117 15.9081C51.2254 15.5643 51.4613 15.1289 51.5195 14.6018H49.0903V14.0346H52.1486ZM53.1978 10.8805H53.8094V16.8964H53.1978V10.8805ZM59.0564 10.8805V11.4477H57.1777V16.8964H56.566V11.4477H54.6873V10.8805H59.0564ZM63.5673 16.8964L62.9993 15.4182H60.0983L59.5303 16.8964H58.8837L61.2342 10.8805H61.8634L64.2139 16.8964H63.5673ZM60.3167 14.851H62.7809L61.5488 11.6282L60.3167 14.851ZM65.611 16.3292H68.4071V16.8964H64.9993V10.8805H65.611V16.3292Z" fill="#F7F9FD"/>
</g>
<defs>
<clipPath id="clip0_62_453">
<rect width="43" height="16" fill="white" transform="translate(38 1)"/>
</clipPath>
</defs>
</svg>
